# xmcd
#
# Track frame offsets:
#	150
#	12350
#	22927
#	37634
#	50811
#	66999
#	81904
#	92058
#	103325
#	119029
#	133634
#	147667
#	166365
#	185034
#
# Disc length: 2678 seconds
#
# Revision: 0
# Processed by: cddbd v1.5.2PL0 Copyright (c) Steve Scherf et al.
# Submitted via: dBpowerAMP V4.0
#
DISCID=cb0a740e
DTITLE=Siebenbuerger Banater Ingolstadt - Heimatgruesse
DYEAR=2007
DGENRE=National Folk
TTITLE0=Blumenthaler Hochzeitsmarsch
TTITLE1=Rosenkoenigin
TTITLE2=Erinnerungen an die Heimat Siebenbuergen
TTITLE3=Festzelt
TTITLE4=Freundliche Gruesse
TTITLE5=Silberne Trompeten
TTITLE6=Fuer Natascha
TTITLE7=Loeffelmeister
TTITLE8=Orzydorfer Gruesse
TTITLE9=Blumenthaler Jugend
TTITLE10=Lissi
TTITLE11=Ja ja die Liebe
TTITLE12=Die alte Heimat
TTITLE13=Banater Land
EXTD=
EXTT0=
EXTT1=
EXTT2=
EXTT3=
EXTT4=
EXTT5=
EXTT6=
EXTT7=
EXTT8=
EXTT9=
EXTT10=
EXTT11=
EXTT12=
EXTT13=
PLAYORDER=
